:SAMPLES-PER-SECOND 30
:FRAME-RANGE 1-668
:FULLY-SPECIFIED
:DEGREES
63
root  51.0974 37.6514 -9.02376 141.728 -86.8591 -142.208
RightUpLeg  -12.4128 22.9682 0.872109
RightLeg  36.179 -2.92399 -2.56071
RightFoot  -22.8885 0.292997 4.43128
RightToes  -1.33073e-015 0 -3.6325e-017
Spine  12.5122 -0.665555 1.86085
Spine1  -2.83768 -1.45294 5.38561
HEad  -5.49144 42.2405 -7.76524
LeftShoulder1  1.35495 -1.23674 -22.2482
LeftArm  -31.4596 -26.8073 -5.43798
LeftForeArm  5.06944 -19.0464 -6.41172
LeftHand  -0.078519 1.42916 2.10874
RightShoulder  7.18701 11.0425 43.106
RightArm  25.3218 0.0505961 11.6084
RightForeArm  4.48388 28.8491 6.01416
RightHand  0.0586711 4.63662 0.386809
LeftUpLeg  -18.7815 -2.34191 22.9699
LeftLeg  15.5205 -5.8956 -1.33868
LeftFoot  -6.12896 0.42637 -8.55023
LeftToes  -2.73175e-012 1.00346e-010 -4.28452e-011
64
root  50.5276 37.7068 -7.55108 172.097 -83.2074 -172.244
RightUpLeg  -12.1718 25.5564 -2.77694
RightLeg  35.1175 -2.54464 -2.17909
RightFoot  -23.208 0.524231 6.55426
RightToes  -1.33073e-015 0 -3.6325e-017
Spine  12.1288 -0.463606 1.73706
Spine1  -2.83202 -0.972416 3.67246
HEad  -5.10412 44.3912 -8.45604
LeftShoulder1  1.29205 -0.901908 -23.0321
LeftArm  -31.6916 -21.8835 -7.68402
LeftForeArm  2.6691 -24.9244 -5.19744
LeftHand  -0.073414 2.01191 2.19454
RightShoulder  7.26233 11.2401 42.964
RightArm  26.4438 0.089382 11.4009
RightForeArm  4.01066 29.1835 6.12091
RightHand  0.07871 4.60048 0.623126
LeftUpLeg  -16.5194 3.17624 19.3868
LeftLeg  14.1399 -10.207 -1.5187
LeftFoot  -2.20159 1.10426 -13.6001
LeftToes  -2.73175e-012 1.00346e-010 -4.28452e-011
65
root  50.0004 37.6563 -6.02052 -178.013 -79.7031 178.051
RightUpLeg  -12.8293 25.3673 -6.76646
RightLeg  35.4564 -3.46814 -2.9068
RightFoot  -22.9451 0.855038 9.92886
RightToes  -1.33073e-015 0 -3.6325e-017
Spine  12.6139 -0.203435 0.274095
Spine1  -3.26017 -0.922874 4.14357
HEad  -5.81077 46.4616 -10.0271
LeftShoulder1  1.2801 -0.614512 -24.8736
LeftArm  -37.4749 -16.4978 -9.62894
LeftForeArm  6.13311 -30.3628 -6.28983
LeftHand  -0.099699 2.30618 3.3648
RightShoulder  7.08236 10.9231 42.8136
RightArm  26.3283 0.709036 10.8906
RightForeArm  5.42083 30.0399 6.25313
RightHand  0.181567 4.7984 1.7692
LeftUpLeg  -16.9832 3.05443 17.1715
LeftLeg  17.982 -6.51933 -1.97477
LeftFoot  -2.82314 1.39674 -18.3927
LeftToes  -2.73175e-012 1.00346e-010 -4.28452e-011
66
root  49.5328 37.6503 -4.53934 -171.436 -76.5719 171.928
RightUpLeg  -14.8249 22.3017 -10.9071
RightLeg  37.197 -5.47799 -4.7089
RightFoot  -20.758 1.01231 13.9461
RightToes  -1.33073e-015 0 -3.6325e-017
Spine  13.3506 -0.0404901 -1.25423
Spine1  -3.90997 -0.965653 4.59222
HEad  -7.30612 48.2212 -11.4272
LeftShoulder1  1.31057 -0.482229 -26.7392
LeftArm  -43.0776 -11.2511 -11.3012
LeftForeArm  8.9399 -35.5968 -7.50891
LeftHand  -0.15756 2.02652 5.16867
RightShoulder  6.92161 10.2759 43.8709
RightArm  25.4146 1.52111 10.1134
RightForeArm  7.33219 30.1614 6.17681
RightHand  0.145802 4.96819 1.3294
LeftUpLeg  -18.6367 9.41191 12.9701
LeftLeg  22.848 -9.09075 -3.85255
LeftFoot  -4.62338 0.940174 -15.47
LeftToes  -2.73175e-012 1.00346e-010 -4.28452e-011
67
root  49.1402 37.8816 -3.11924 -169.015 -72.2139 170.358
RightUpLeg  -17.917 17.7574 -13.7885
RightLeg  38.7841 -9.44631 -8.31142
RightFoot  -15.5762 0.435326 14.5745
RightToes  -1.33073e-015 0 -3.6325e-017
Spine  13.6552 0.0732375 -0.333219
Spine1  -4.18952 -0.275606 1.67444
HEad  -9.55259 49.8201 -12.9673
LeftShoulder1  1.2496 -0.199739 -27.6243
LeftArm  -46.3395 -5.59896 -13.4423
LeftForeArm  10.1466 -41.0815 -9.10685
LeftHand  -0.157774 2.97179 7.0431
RightShoulder  6.88673 9.91416 44.8756
RightArm  23.4139 1.44532 10.0184
RightForeArm  9.49208 30.024 6.0223
RightHand  0.0885136 4.84195 0.704535
LeftUpLeg  -18.7909 16.0033 9.38951
LeftLeg  23.8778 -10.4924 -4.71333
LeftFoot  -5.49082 0.747424 -13.9292
LeftToes  -2.73175e-012 1.00346e-010 -4.28452e-011
68
root  48.7115 38.2092 -1.75549 -168.059 -67.3978 170.256
RightUpLeg  -20.8883 11.822 -14.5294
RightLeg  39.7123 -15.2184 -13.4017
RightFoot  -10.043 -0.166795 8.6712
RightToes  -1.33073e-015 0 -3.6325e-017
Spine  13.9469 0.316008 1.08104
Spine1  -4.71613 0.551457 -0.776584
HEad  -10.7797 51.2538 -14.5799
LeftShoulder1  1.13857 0.241624 -28.8088
LeftArm  -47.996 0.0569603 -14.7125
LeftForeArm  11.2235 -46.3464 -10.9557
LeftHand  -0.14484 3.68056 8.969
RightShoulder  6.89905 9.73027 45.6096
RightArm  21.6688 0.420283 10.1521
RightForeArm  9.31094 30.6756 6.19286
RightHand  0.00483268 4.47936 -0.229715
LeftUpLeg  -18.3474 19.8512 6.12249
LeftLeg  23.1438 -9.25483 -3.97997
LeftFoot  -5.84812 0.614085 -12.0372
LeftToes  -2.73175e-012 1.00346e-010 -4.28452e-011
69
root  48.2613 38.519 -0.556452 -168.06 -63.2951 170.927
RightUpLeg  -22.0094 5.06148 -13.1073
RightLeg  37.6406 -16.8621 -13.7318
RightFoot  -10.8141 -0.11636 9.27081
RightToes  -1.33073e-015 0 -3.6325e-017
Spine  14.222 0.540554 2.65617
Spine1  -5.21745 1.20913 -2.31915
HEad  -11.2172 52.0672 -16.0507
LeftShoulder1  1.00838 0.722686 -30.1805
LeftArm  -48.8167 4.85516 -15.4428
LeftForeArm  11.9028 -50.7024 -12.8352
LeftHand  -0.0942095 4.51938 10.5933
RightShoulder  6.59221 8.97907 46.2276
RightArm  20.2909 -0.728585 10.4441
RightForeArm  9.49632 31.625 6.4204
RightHand  -0.118531 4.53045 -1.67421
LeftUpLeg  -17.7656 21.7154 3.60486
LeftLeg  21.902 -7.05203 -2.77815
LeftFoot  -6.11228 0.529623 -10.774
LeftToes  -2.73175e-012 1.00346e-010 -4.28452e-011
70
root  47.7972 38.8112 0.419211 -169.128 -59.3201 172.293
RightUpLeg  -21.6156 -0.928692 -9.75437
RightLeg  34.0415 -14.8258 -10.765
RightFoot  -12.3103 1.30775e-005 9.88735
RightToes  -1.33073e-015 0 -3.6325e-017
Spine  14.1482 0.888377 4.37415
Spine1  -5.07152 2.02111 -3.97133
HEad  -10.3855 52.5021 -16.4558
LeftShoulder1  0.872082 1.16549 -31.22
LeftArm  -49.2249 9.66642 -16.445
LeftForeArm  11.8162 -54.1766 -14.7008
LeftHand  -0.0548393 4.98094 10.9982
RightShoulder  5.97876 7.65083 46.9434
RightArm  18.2586 -2.03795 10.5847
RightForeArm  12.3899 33.2607 6.67439
RightHand  -0.270521 4.52563 -3.45225
LeftUpLeg  -16.5918 24.1025 2.04198
LeftLeg  20.374 -5.41196 -1.88738
LeftFoot  -6.16459 0.476671 -9.71167
LeftToes  -2.73175e-012 1.00346e-010 -4.28452e-011
71
root  47.3455 39.0579 1.19131 -169.607 -55.4813 173.108
RightUpLeg  -20.3427 -6.17664 -6.08854
RightLeg  30.2634 -12.339 -7.89873
RightFoot  -14.411 0.207024 11.3539
RightToes  -1.33073e-015 0 -3.6325e-017
Spine  13.299 1.23782 5.2571
Spine1  -4.70542 2.64254 -5.18513
HEad  -8.43059 52.9622 -15.4796
LeftShoulder1  0.660547 1.76849 -31.9813
LeftArm  -48.0267 14.7562 -16.9532
LeftForeArm  14.061 -57.1406 -16.3823
LeftHand  -0.0288752 5.26594 11.7707
RightShoulder  5.27377 6.12918 47.9752
RightArm  15.3846 -3.39308 10.6956
RightForeArm  17.1414 34.7425 6.78543
RightHand  -0.533317 4.72021 -6.40783
LeftUpLeg  -15.39 25.9281 0.877512
LeftLeg  18.6527 -3.3348 -1.39191
LeftFoot  -6.03387 0.455129 -9.0273
LeftToes  -2.73175e-012 1.00346e-010 -4.28452e-011
72
root  46.944 39.2584 1.8133 -169.905 -52.2502 173.609
RightUpLeg  -17.997 -10.7345 -2.77195
RightLeg  26.3654 -10.934 -6.05842
RightFoot  -15.5261 0.264531 10.107
RightToes  -1.33073e-015 0 -3.6325e-017
Spine  12.1489 1.54097 5.62067
Spine1  -4.3139 2.98716 -5.54437
HEad  -5.31044 52.6749 -13.2408
LeftShoulder1  0.431379 2.38042 -32.3047
LeftArm  -45.5442 19.6456 -17.2258
LeftForeArm  16.117 -59.9725 -18.3221
LeftHand  -0.0304026 5.25021 11.6778
RightShoulder  4.31828 4.17783 49.2866
RightArm  9.75717 -4.3408 10.3229
RightForeArm  23.9395 36.1703 6.76149
RightHand  -0.850764 5.08667 -9.70316
LeftUpLeg  -14.2806 26.3711 0.151662
LeftLeg  17.2923 -1.08232 -1.07925
LeftFoot  -5.82589 0.468623 -8.99205
LeftToes  -2.73175e-012 1.00346e-010 -4.28452e-011
73
root  46.6219 39.3792 2.3129 -170.484 -49.911 174.079
RightUpLeg  -15.0046 -13.5255 -0.236564
RightLeg  23.1505 -11.4885 -5.54857
RightFoot  -16.2201 0.116965 5.32448
RightToes  -1.33073e-015 0 -3.6325e-017
Spine  11.1775 1.73245 5.82424
Spine1  -4.15508 3.05478 -5.09955
HEad  -0.376578 50.6554 -9.39026
LeftShoulder1  0.260714 2.81839 -31.9338
LeftArm  -42.5525 24.081 -17.7897
LeftForeArm  17.4446 -62.2195 -20.2032
LeftHand  -0.0390111 5.1461 10.275
RightShoulder  3.29455 2.22332 50.466
RightArm  1.37455 -5.23598 9.56281
RightForeArm  30.316 38.2929 6.96253
RightHand  -1.20084 4.7596 -13.9577
LeftUpLeg  -13.7108 27.5077 -0.553613
LeftLeg  17.0933 -1.36455 -0.636704
LeftFoot  -6.06097 0.486254 -9.74158
LeftToes  -2.73175e-012 1.00346e-010 -4.28452e-011
74
root  46.3838 39.343 2.75343 -171.408 -48.4121 174.655
RightUpLeg  -12.4455 -11.594 0.870331
RightLeg  21.5891 -11.8932 -5.32175
RightFoot  -17.381 0.0256799 2.7178
RightToes  -1.33073e-015 0 -3.6325e-017
Spine  10.6113 1.67817 6.0713
Spine1  -4.40588 2.83374 -4.29251
HEad  4.5434 46.3815 -5.84638
LeftShoulder1  0.184406 3.0132 -31.4784
LeftArm  -40.9269 27.5809 -18.6995
LeftForeArm  17.1211 -63.2673 -21.3177
LeftHand  -0.0808659 4.52193 8.59698
RightShoulder  2.59734 0.925146 51.4873
RightArm  -7.59913 -5.27947 7.78686
RightForeArm  33.0523 41.2298 7.65739
RightHand  -1.44483 4.22404 -17.5904
LeftUpLeg  -14.4083 26.6299 -0.440624
LeftLeg  20.1859 -2.77326 -0.801049
LeftFoot  -6.97932 0.447387 -10.6286
LeftToes  -2.73175e-012 1.00346e-010 -4.28452e-011
75
root  46.2412 39.1114 3.24181 -173.449 -46.973 176.43
RightUpLeg  -12.5469 -4.94995 1.69252
RightLeg  23.7008 -14.3209 -6.9515
RightFoot  -18.2569 0.0485196 2.84906
RightToes  -1.33073e-015 0 -3.6325e-017
Spine  10.9278 1.4521 7.57692
Spine1  -4.91914 2.64313 -3.82773
HEad  7.78498 40.0361 -3.94585
LeftShoulder1  0.140954 3.12633 -31.2288
LeftArm  -39.8479 29.8028 -19.818
LeftForeArm  16.1758 -63.8996 -22.1345
LeftHand  -0.0680157 4.63677 7.72825
RightShoulder  2.65315 0.992639 51.792
RightArm  -16.4263 -3.99836 5.38296
RightForeArm  33.3541 44.0554 8.54722
RightHand  -1.56915 3.73555 -20.0322
LeftUpLeg  -16.8149 25.0607 1.43017
LeftLeg  27.6532 -5.99244 -3.06602
LeftFoot  -8.23248 0.374485 -11.9534
LeftToes  -2.73175e-012 1.00346e-010 -4.28452e-011
